<?xml version="1.0" encoding="UTF-8" standalone="no"?>
<!-- Generator: Adobe Illustrator 18.0.0, SVG Export Plug-In . SVG Version: 6.00 Build 0)  -->

<svg
   xmlns:dc="http://purl.org/dc/elements/1.1/"
   xmlns:cc="http://creativecommons.org/ns#"
   xmlns:rdf="http://www.w3.org/1999/02/22-rdf-syntax-ns#"
   xmlns:svg="http://www.w3.org/2000/svg"
   xmlns="http://www.w3.org/2000/svg"
   xmlns:sodipodi="http://sodipodi.sourceforge.net/DTD/sodipodi-0.dtd"
   xmlns:inkscape="http://www.inkscape.org/namespaces/inkscape"
   version="1.1"
   id="Layer_1"
   x="0px"
   y="0px"
   width="120px"
   height="40px"
   viewBox="0 0 120 40"
   enable-background="new 0 0 120 40"
   xml:space="preserve"
   inkscape:version="0.91 r13725"
   sodipodi:docname="vicons.svg"><metadata
     id="metadata31"><rdf:RDF><cc:Work
         rdf:about=""><dc:format>image/svg+xml</dc:format><dc:type
           rdf:resource="http://purl.org/dc/dcmitype/StillImage" /></cc:Work></rdf:RDF></metadata><defs
     id="defs29" /><sodipodi:namedview
     pagecolor="#ffffff"
     bordercolor="#666666"
     borderopacity="1"
     objecttolerance="10"
     gridtolerance="10"
     guidetolerance="10"
     inkscape:pageopacity="0"
     inkscape:pageshadow="2"
     inkscape:window-width="1610"
     inkscape:window-height="951"
     id="namedview27"
     showgrid="false"
     inkscape:zoom="3.025"
     inkscape:cx="60"
     inkscape:cy="20"
     inkscape:window-x="20"
     inkscape:window-y="43"
     inkscape:window-maximized="0"
     inkscape:current-layer="Layer_1" /><path
     fill="#C3C2B9"
     d="M15,3c-0.3-0.6-0.7-1-1.3-1H6.2C5.6,2,5.3,2.4,5,3l-4,7v7c0,0.6,0.4,1,1,1h16c0.6,0,1-0.4,1-1v-7L15,3z   M6.7,4h6.5l2.9,5h-3.6C12.2,9,12,9.2,12,9.5v0.4c0,1-0.8,2-1.8,2.1C9,12.1,8,11.2,8,10V9.5C8,9.2,7.8,9,7.5,9H3.9L6.7,4z M16.5,16  h-13C3.2,16,3,15.8,3,15.5V11h3.1c0.4,1.7,2,3,3.9,3s3.4-1.3,3.9-3H17v4.5C17,15.8,16.8,16,16.5,16z"
     id="path3" /><path
     fill-rule="evenodd"
     clip-rule="evenodd"
     fill="#C3C2B9"
     d="M37.7,6.5L30.5,14v0H26V9.5l7.5-7.2C33.7,2.1,33.9,2,34.2,2  c0.3,0,0.5,0.1,0.7,0.3l2.8,2.8C38.1,5.5,38.1,6.1,37.7,6.5z M34.2,4.4L28,10.3V12h1.7l5.9-6.2L34.2,4.4z M27,4h-2.5  C24.2,4,24,4.2,24,4.5v11c0,0.3,0.2,0.5,0.5,0.5h11c0.3,0,0.5-0.2,0.5-0.5V13c0-0.6,0.4-1,1-1c0.6,0,1,0.4,1,1v4c0,0.6-0.4,1-1,1H23  c-0.6,0-1-0.4-1-1V3c0-0.6,0.4-1,1-1h4c0.6,0,1,0.4,1,1S27.6,4,27,4z"
     id="path5" /><path
     fill-rule="evenodd"
     clip-rule="evenodd"
     fill="#C3C2B9"
     d="M93,17h-6c-3.9,0-7-3.1-7-7s3.1-7,7-7h6c3.9,0,7,3.1,7,7  S96.9,17,93,17z M93,5h-6c-2.8,0-5,2.2-5,5s2.2,5,5,5h6c2.8,0,5-2.2,5-5S95.8,5,93,5z M87,13c-1.7,0-3-1.3-3-3s1.3-3,3-3s3,1.3,3,3  S88.7,13,87,13z"
     id="path11" /><path
     d="m 15.330579,22.669421 c -0.3,-0.6 -0.7,-1 -1.3,-1 l -7.5000005,0 c -0.6,0 -0.9,0.4 -1.2,1 l -4,7 0,7 c 0,0.6 0.4,1 1,1 l 16.0000005,0 c 0.6,0 1,-0.4 1,-1 l 0,-7 -4,-7 z m -8.3000005,1 6.5000005,0 2.9,5 -3.6,0 c -0.3,0 -0.5,0.2 -0.5,0.5 l 0,0.4 c 0,1 -0.8,2 -1.8,2.1 -1.2000005,0.1 -2.2000005,-0.8 -2.2000005,-2 l 0,-0.5 c 0,-0.3 -0.2,-0.5 -0.5,-0.5 l -3.6,0 2.8,-5 z m 9.8000005,12 -13.0000005,0 c -0.3,0 -0.5,-0.2 -0.5,-0.5 l 0,-4.5 3.1,0 c 0.4,1.7 2,3 3.9000005,3 1.9,0 3.4,-1.3 3.9,-3 l 3.1,0 0,4.5 c 0,0.3 -0.2,0.5 -0.5,0.5 z"
     id="path15"
     inkscape:connector-curvature="0"
     style="fill:#f05451" /><path
     fill-rule="evenodd"
     clip-rule="evenodd"
     fill="#F05451"
     d="M37.7,26.5L30.5,34v0H26v-4.5l7.5-7.2c0.2-0.2,0.5-0.3,0.7-0.3  c0.3,0,0.5,0.1,0.7,0.3l2.8,2.8C38.1,25.5,38.1,26.1,37.7,26.5z M34.2,24.4L28,30.3V32h1.7l5.9-6.2L34.2,24.4z M27,24h-2.5  c-0.3,0-0.5,0.2-0.5,0.5v11c0,0.3,0.2,0.5,0.5,0.5h11c0.3,0,0.5-0.2,0.5-0.5V33c0-0.6,0.4-1,1-1c0.6,0,1,0.4,1,1v4c0,0.6-0.4,1-1,1  H23c-0.6,0-1-0.4-1-1V23c0-0.6,0.4-1,1-1h4c0.6,0,1,0.4,1,1S27.6,24,27,24z"
     id="path17" /><path
     fill-rule="evenodd"
     clip-rule="evenodd"
     fill="#F05451"
     d="M93,37h-6c-3.9,0-7-3.1-7-7s3.1-7,7-7h6c3.9,0,7,3.1,7,7  S96.9,37,93,37z M93,25h-6c-2.8,0-5,2.2-5,5s2.2,5,5,5h6c2.8,0,5-2.2,5-5S95.8,25,93,25z M87,33c-1.7,0-3-1.3-3-3c0-1.7,1.3-3,3-3  s3,1.3,3,3C90,31.7,88.7,33,87,33z"
     id="path23" /></svg>